<svg width="48" height="44" viewBox="0 0 48 44" fill="none" xmlns="http://www.w3.org/2000/svg">
<path d="M0 4C0 1.79086 1.79086 0 4 0H44C46.2091 0 48 1.79086 48 4V40C48 42.2091 46.2091 44 44 44H4C1.79086 44 0 42.2091 0 40V4Z" fill="white"/>
<g clip-path="url(#clip0_1980_46)">
<path d="M26.4587 9.8375C25.736 7.3875 22.264 7.3875 21.5412 9.8375L21.3663 10.4325C21.2583 10.7993 21.0695 11.1373 20.8139 11.4216C20.5583 11.706 20.2423 11.9295 19.8891 12.0759C19.5358 12.2222 19.1543 12.2876 18.7725 12.2673C18.3907 12.247 18.0182 12.1415 17.6825 11.9585L17.14 11.661C14.8947 10.4395 12.4395 12.8948 13.6627 15.1382L13.9585 15.6825C14.739 17.1175 13.9987 18.9043 12.4325 19.3663L11.8375 19.5412C9.3875 20.264 9.3875 23.736 11.8375 24.4587L12.4325 24.6338C12.7993 24.7417 13.1373 24.9305 13.4216 25.1861C13.706 25.4417 13.9295 25.7577 14.0759 26.1109C14.2222 26.4642 14.2876 26.8457 14.2673 27.2275C14.247 27.6093 14.1415 27.9818 13.9585 28.3175L13.661 28.86C12.4395 31.1052 14.8948 33.5605 17.1382 32.3372L17.6825 32.0415C18.0182 31.8585 18.3907 31.753 18.7725 31.7327C19.1543 31.7124 19.5358 31.7778 19.8891 31.9241C20.2423 32.0705 20.5583 32.294 20.8139 32.5784C21.0695 32.8627 21.2583 33.2007 21.3663 33.5675L21.5412 34.1625C22.264 36.6125 25.736 36.6125 26.4587 34.1625L26.6338 33.5675C26.7417 33.2007 26.9305 32.8627 27.1861 32.5784C27.4417 32.294 27.7577 32.0705 28.1109 31.9241C28.4642 31.7778 28.8457 31.7124 29.2275 31.7327C29.6093 31.753 29.9818 31.8585 30.3175 32.0415L30.86 32.339C33.1052 33.5605 35.5605 31.1052 34.3372 28.8617L34.0415 28.3175C33.8585 27.9818 33.753 27.6093 33.7327 27.2275C33.7124 26.8457 33.7778 26.4642 33.9241 26.1109C34.0705 25.7577 34.294 25.4417 34.5784 25.1861C34.8627 24.9305 35.2007 24.7417 35.5675 24.6338L36.1625 24.4587C38.6125 23.736 38.6125 20.264 36.1625 19.5412L35.5675 19.3663C35.2007 19.2583 34.8627 19.0695 34.5784 18.8139C34.294 18.5583 34.0705 18.2423 33.9241 17.8891C33.7778 17.5358 33.7124 17.1543 33.7327 16.7725C33.753 16.3907 33.8585 16.0182 34.0415 15.6825L34.339 15.14C35.5605 12.8947 33.1052 10.4395 30.8617 11.6627L30.3175 11.9585C29.9818 12.1415 29.6093 12.247 29.2275 12.2673C28.8457 12.2876 28.4642 12.2222 28.1109 12.0759C27.7577 11.9295 27.4417 11.706 27.1861 11.4216C26.9305 11.1373 26.7417 10.7993 26.6338 10.4325L26.4587 9.8375ZM24 27.1275C22.6401 27.1275 21.3359 26.5873 20.3743 25.6257C19.4127 24.6641 18.8725 23.3599 18.8725 22C18.8725 20.6401 19.4127 19.3359 20.3743 18.3743C21.3359 17.4127 22.6401 16.8725 24 16.8725C25.3594 16.8725 26.6632 17.4125 27.6245 18.3738C28.5857 19.3351 29.1257 20.6388 29.1257 21.9983C29.1257 23.3577 28.5857 24.6614 27.6245 25.6227C26.6632 26.584 25.3594 27.124 24 27.124V27.1275Z" fill="black"/>
</g>
<defs>
<clipPath id="clip0_1980_46">
<rect width="28" height="28" fill="white" transform="translate(10 8)"/>
</clipPath>
</defs>
</svg>
