<svg width="48" height="44" viewBox="0 0 48 44" fill="none" xmlns="http://www.w3.org/2000/svg">
<path d="M0 4C0 1.79086 1.79086 0 4 0H44C46.2091 0 48 1.79086 48 4V40C48 42.2091 46.2091 44 44 44H4C1.79086 44 0 42.2091 0 40V4Z" fill="white"/>
<g clip-path="url(#clip0_1980_36)">
<path d="M23.6293 16.7626L14.6669 24.1442V32.1111C14.6669 32.3174 14.7489 32.5152 14.8947 32.6611C15.0406 32.8069 15.2384 32.8889 15.4447 32.8889L20.892 32.8748C21.0977 32.8737 21.2945 32.7913 21.4395 32.6456C21.5845 32.4998 21.6659 32.3026 21.6659 32.097V27.4444C21.6659 27.2381 21.7479 27.0403 21.8937 26.8945C22.0396 26.7486 22.2374 26.6667 22.4437 26.6667H25.5548C25.7611 26.6667 25.9589 26.7486 26.1048 26.8945C26.2507 27.0403 26.3326 27.2381 26.3326 27.4444V32.0936C26.3323 32.1959 26.3522 32.2973 26.3911 32.392C26.4301 32.4866 26.4873 32.5727 26.5595 32.6451C26.6318 32.7176 26.7177 32.7751 26.8122 32.8144C26.9067 32.8536 27.008 32.8738 27.1104 32.8738L32.5558 32.8889C32.7621 32.8889 32.9599 32.8069 33.1058 32.6611C33.2516 32.5152 33.3336 32.3174 33.3336 32.1111V24.1389L24.3731 16.7626C24.2677 16.6777 24.1365 16.6314 24.0012 16.6314C23.8659 16.6314 23.7347 16.6777 23.6293 16.7626ZM37.7864 21.7798L33.7225 18.43V11.6969C33.7225 11.5421 33.661 11.3938 33.5516 11.2844C33.4422 11.175 33.2938 11.1135 33.1391 11.1135H30.4169C30.2622 11.1135 30.1138 11.175 30.0044 11.2844C29.895 11.3938 29.8336 11.5421 29.8336 11.6969V15.2265L25.4814 11.6458C25.0638 11.3021 24.5397 11.1142 23.9988 11.1142C23.4579 11.1142 22.9338 11.3021 22.5161 11.6458L10.2112 21.7798C10.1521 21.8286 10.1033 21.8886 10.0674 21.9563C10.0315 22.024 10.0093 22.0981 10.0021 22.1744C9.99489 22.2507 10.0028 22.3277 10.0253 22.4009C10.0478 22.4742 10.0846 22.5423 10.1334 22.6013L11.373 24.1082C11.4217 24.1675 11.4817 24.2165 11.5494 24.2526C11.6171 24.2887 11.6912 24.311 11.7676 24.3184C11.8439 24.3257 11.921 24.318 11.9943 24.2955C12.0677 24.273 12.1359 24.2363 12.195 24.1875L23.6293 14.7696C23.7347 14.6847 23.8659 14.6384 24.0012 14.6384C24.1365 14.6384 24.2677 14.6847 24.3731 14.7696L35.8079 24.1875C35.8669 24.2363 35.935 24.2731 36.0083 24.2956C36.0815 24.3182 36.1585 24.326 36.2348 24.3188C36.3111 24.3116 36.3852 24.2894 36.4529 24.2535C36.5206 24.2176 36.5806 24.1688 36.6294 24.1097L37.869 22.6028C37.9178 22.5434 37.9544 22.4749 37.9767 22.4014C37.9989 22.3278 38.0064 22.2506 37.9988 22.1741C37.9911 22.0976 37.9684 22.0234 37.9319 21.9557C37.8955 21.8881 37.846 21.8283 37.7864 21.7798Z" fill="black"/>
</g>
<defs>
<clipPath id="clip0_1980_36">
<rect width="28" height="28" fill="white" transform="translate(10 8)"/>
</clipPath>
</defs>
</svg>
