<svg viewBox="0 0 48 44" fill="currentColor" xmlns="http://www.w3.org/2000/svg">
<path d="M35.258 32.0625C35.1812 32.1956 35.0707 32.3061 34.9377 32.3829C34.8046 32.4597 34.6537 32.5001 34.5001 32.5H13.5001C13.3466 32.4999 13.1958 32.4593 13.0629 32.3825C12.93 32.3056 12.8197 32.1951 12.743 32.0622C12.6663 31.9292 12.6259 31.7783 12.626 31.6248C12.626 31.4713 12.6664 31.3205 12.7432 31.1875C14.409 28.3077 16.976 26.2427 19.9718 25.2638C18.4899 24.3816 17.3386 23.0374 16.6947 21.4376C16.0507 19.8378 15.9497 18.0709 16.4072 16.4081C16.8647 14.7453 17.8553 13.2787 19.227 12.2334C20.5987 11.1882 22.2755 10.6221 24.0001 10.6221C25.7246 10.6221 27.4015 11.1882 28.7732 12.2334C30.1449 13.2787 31.1355 14.7453 31.593 16.4081C32.0504 18.0709 31.9494 19.8378 31.3055 21.4376C30.6615 23.0374 29.5102 24.3816 28.0284 25.2638C31.0241 26.2427 33.5912 28.3077 35.257 31.1875C35.3339 31.3205 35.3745 31.4713 35.3747 31.6249C35.3749 31.7785 35.3347 31.9294 35.258 32.0625Z" fill="black"/>
</svg>
